<svg xmlns="http://www.w3.org/2000/svg" width="518" height="600" viewBox="0 0 518 600"><title>nanonext</title><path fill="#0c2b32" d="m259 1 259 149.5v299L259 599 0 449.5v-299Z"/><path fill="#008298" d="m259 16 246 142v284L259 584 13 442V158Z"/><defs><clipPath id="a"><path d="m259 16 246 142v284L259 584 13 442V158Z"/></clipPath></defs><g fill="none" stroke="#e3a552" stroke-dasharray="5 6" stroke-linecap="round" stroke-width="2.4" clip-path="url(#a)" opacity=".55"><circle cx="-72" cy="-72" r="50.91"/><circle cx="-72" r="50.91"/><circle cx="-72" cy="72" r="50.91"/><circle cx="-72" cy="144" r="50.91"/><circle cx="-72" cy="216" r="50.91"/><circle cx="-72" cy="288" r="50.91"/><circle cx="-72" cy="360" r="50.91"/><circle cx="-72" cy="432" r="50.91"/><circle cx="-72" cy="504" r="50.91"/><circle cx="-72" cy="576" r="50.91"/><circle cy="-72" r="50.91"/><circle r="50.91"/><circle cy="72" r="50.91"/><circle cy="144" r="50.91"/><circle cy="216" r="50.91"/><circle cy="288" r="50.91"/><circle cy="360" r="50.91"/><circle cy="432" r="50.91"/><circle cy="504" r="50.91"/><circle cy="576" r="50.91"/><circle cx="72" cy="-72" r="50.91"/><circle cx="72" r="50.91"/><circle cx="72" cy="72" r="50.91"/><circle cx="72" cy="144" r="50.91"/><circle cx="72" cy="216" r="50.91"/><circle cx="72" cy="288" r="50.91"/><circle cx="72" cy="360" r="50.91"/><circle cx="72" cy="432" r="50.91"/><circle cx="72" cy="504" r="50.91"/><circle cx="72" cy="576" r="50.91"/><circle cx="144" cy="-72" r="50.91"/><circle cx="144" r="50.91"/><circle cx="144" cy="72" r="50.91"/><circle cx="144" cy="144" r="50.91"/><circle cx="144" cy="216" r="50.91"/><circle cx="144" cy="288" r="50.91"/><circle cx="144" cy="360" r="50.91"/><circle cx="144" cy="432" r="50.91"/><circle cx="144" cy="504" r="50.91"/><circle cx="144" cy="576" r="50.91"/><circle cx="216" cy="-72" r="50.91"/><circle cx="216" r="50.91"/><circle cx="216" cy="72" r="50.91"/><circle cx="216" cy="144" r="50.91"/><circle cx="216" cy="216" r="50.91"/><circle cx="216" cy="288" r="50.91"/><circle cx="216" cy="360" r="50.91"/><circle cx="216" cy="432" r="50.91"/><circle cx="216" cy="504" r="50.91"/><circle cx="216" cy="576" r="50.91"/><circle cx="288" cy="-72" r="50.91"/><circle cx="288" r="50.91"/><circle cx="288" cy="72" r="50.91"/><circle cx="288" cy="144" r="50.91"/><circle cx="288" cy="216" r="50.91"/><circle cx="288" cy="288" r="50.91"/><circle cx="288" cy="360" r="50.91"/><circle cx="288" cy="432" r="50.91"/><circle cx="288" cy="504" r="50.91"/><circle cx="288" cy="576" r="50.91"/><circle cx="360" cy="-72" r="50.91"/><circle cx="360" r="50.91"/><circle cx="360" cy="72" r="50.91"/><circle cx="360" cy="144" r="50.91"/><circle cx="360" cy="216" r="50.91"/><circle cx="360" cy="288" r="50.91"/><circle cx="360" cy="360" r="50.91"/><circle cx="360" cy="432" r="50.91"/><circle cx="360" cy="504" r="50.91"/><circle cx="360" cy="576" r="50.91"/><circle cx="432" cy="-72" r="50.91"/><circle cx="432" r="50.91"/><circle cx="432" cy="72" r="50.91"/><circle cx="432" cy="144" r="50.91"/><circle cx="432" cy="216" r="50.91"/><circle cx="432" cy="288" r="50.91"/><circle cx="432" cy="360" r="50.91"/><circle cx="432" cy="432" r="50.91"/><circle cx="432" cy="504" r="50.91"/><circle cx="432" cy="576" r="50.91"/><circle cx="504" cy="-72" r="50.91"/><circle cx="504" r="50.91"/><circle cx="504" cy="72" r="50.91"/><circle cx="504" cy="144" r="50.91"/><circle cx="504" cy="216" r="50.91"/><circle cx="504" cy="288" r="50.91"/><circle cx="504" cy="360" r="50.91"/><circle cx="504" cy="432" r="50.91"/><circle cx="504" cy="504" r="50.91"/><circle cx="504" cy="576" r="50.91"/></g><g fill="#008298" stroke="#008298" stroke-linecap="round" stroke-linejoin="round"><path stroke-width="13.0038" d="M73.3364 201.5395V228h-4.1035v-25.8945q0-4.4572-1.7688-6.509-1.7687-2.0517-5.2355-2.0517-3.5375 0-6.2614 1.9456t-5.2 5.6954V228h-4.1036v-37.0023h3.5375l.4245 6.2968q2.264-3.3253 5.377-5.2001t7.0043-1.8749q5.0232 0 7.6763 2.9715t2.6532 8.3485m99.4857 24.338-.9197 2.9008q-2.547-.4953-3.9266-1.9103t-1.8042-4.3157q-3.8205 6.226-11.5322 6.226-5.3063 0-8.3839-3.007-3.0776-3.0068-3.0776-8.03 0-5.7308 4.0681-8.8438t11.2846-3.113h7.075v-3.6082q0-4.4573-1.981-6.4737t-6.5797-2.0163q-4.245 0-10.0465 2.1225l-1.0613-3.113q6.226-2.4763 11.6738-2.4763 12.0982 0 12.0982 11.7445v17.829q0 2.9007.7429 4.1743.7429 1.2734 2.3701 1.9102m-7.2165-6.9335v-10.188h-6.4382q-5.66 0-8.6315 2.1933t-2.9715 6.5797q0 3.8205 2.0517 5.8723 2.0518 2.0517 5.7308 2.0517 6.6505 0 10.2587-6.509m106.7308-17.4045V228h-4.1035v-25.8945q0-4.4572-1.7688-6.509-1.7687-2.0517-5.2355-2.0517-3.5375 0-6.2613 1.9456-2.724 1.9456-5.2002 5.6954V228h-4.1035v-37.0023h3.5375l.4245 6.2968q2.264-3.3253 5.377-5.2001t7.0043-1.8749q5.0232 0 7.6764 2.9715 2.653 2.9715 2.653 8.3485m101.3348 7.8533q0 8.9852-4.2096 14.1853-4.2096 5.2002-11.4969 5.2002-7.358 0-11.4968-5.1294-4.139-5.1294-4.139-14.1147 0-5.8722 1.9103-10.2587t5.4478-6.7212q3.5375-2.3348 8.3485-2.3348 7.358 0 11.4969 5.0586 4.1388 5.0587 4.1388 14.1147m-26.9557.1414q0 7.7118 2.9361 11.7446t8.3131 4.0327 8.3839-4.0327 3.0069-11.886q0-7.7118-2.9361-11.7092t-8.384-3.9974q-5.377 0-8.3484 4.0328t-2.9715 11.8152m-73.247 107.5566h-24.6918q.3538 7.2165 3.4314 10.7186t8.1009 3.5021q2.9007 0 5.1293-.8844 2.2287-.8843 4.8464-2.7946l1.9103 2.6178q-2.7593 2.264-5.66 3.396t-6.4383 1.132q-7.358 0-11.5322-5.0233t-4.1743-13.9377q0-5.8723 1.8041-10.2942t5.1648-6.8627 7.8179-2.4409q7.075 0 10.754 4.7756t3.679 13.1242q0 1.5564-.1415 2.9715m-3.8913-4.245q0-6.226-2.5823-9.7282t-7.6764-3.5021q-4.5988 0-7.4288 3.5375t-3.113 10.754h20.8005Zm-8.1008 99.3442 13.018 19.81h-4.9526l-10.6832-17.1922L248.246 432h-4.7403l13.018-19.6685-11.32-17.3338h4.811l9.056 14.7868 9.1268-14.7867h4.6695Zm9.056 117.2535q-3.5376 2.3347-7.7826 2.3347t-6.6505-2.5116q-2.4054-2.5116-2.4054-7.2518V497.323h-6.226v-3.3252h6.226v-8.8438l4.1035-.4952v9.339h9.5512l-.4952 3.3252h-9.056v24.4795q0 3.2545 1.3442 4.8464t4.1035 1.5919q2.83 0 5.66-1.6273Z"/><path stroke-width="13.007" d="m395.5907 376.4992 47.6969 23.1631v7.4013l-47.697 23.4372-2.8782-6.5789 43.448-20.559-43.448-20.1478Z"/></g><path fill="#fff" d="M73.3364 201.5395V228h-4.1035v-25.8945q0-4.4572-1.7688-6.509-1.7687-2.0517-5.2355-2.0517-3.5375 0-6.2614 1.9456t-5.2 5.6954V228h-4.1036v-37.0023h3.5375l.4245 6.2968q2.264-3.3253 5.377-5.2001t7.0043-1.8749q5.0232 0 7.6763 2.9715t2.6532 8.3485m99.4857 24.338-.9197 2.9008q-2.547-.4953-3.9266-1.9103t-1.8042-4.3157q-3.8205 6.226-11.5322 6.226-5.3063 0-8.3839-3.007-3.0776-3.0068-3.0776-8.03 0-5.7308 4.0681-8.8438t11.2846-3.113h7.075v-3.6082q0-4.4573-1.981-6.4737t-6.5797-2.0163q-4.245 0-10.0465 2.1225l-1.0613-3.113q6.226-2.4763 11.6738-2.4763 12.0982 0 12.0982 11.7445v17.829q0 2.9007.7429 4.1743.7429 1.2734 2.3701 1.9102m-7.2165-6.9335v-10.188h-6.4382q-5.66 0-8.6315 2.1933t-2.9715 6.5797q0 3.8205 2.0517 5.8723 2.0518 2.0517 5.7308 2.0517 6.6505 0 10.2587-6.509m106.7308-17.4045V228h-4.1035v-25.8945q0-4.4572-1.7688-6.509-1.7687-2.0517-5.2355-2.0517-3.5375 0-6.2613 1.9456-2.724 1.9456-5.2002 5.6954V228h-4.1035v-37.0023h3.5375l.4245 6.2968q2.264-3.3253 5.377-5.2001t7.0043-1.8749q5.0232 0 7.6764 2.9715 2.653 2.9715 2.653 8.3485m101.3348 7.8533q0 8.9852-4.2096 14.1853-4.2096 5.2002-11.4969 5.2002-7.358 0-11.4968-5.1294-4.139-5.1294-4.139-14.1147 0-5.8722 1.9103-10.2587t5.4478-6.7212q3.5375-2.3348 8.3485-2.3348 7.358 0 11.4969 5.0586 4.1388 5.0587 4.1388 14.1147m-26.9557.1414q0 7.7118 2.9361 11.7446t8.3131 4.0327 8.3839-4.0327 3.0069-11.886q0-7.7118-2.9361-11.7092t-8.384-3.9974q-5.377 0-8.3484 4.0328t-2.9715 11.8152m-73.247 107.5566h-24.6918q.3538 7.2165 3.4314 10.7186t8.1009 3.5021q2.9007 0 5.1293-.8844 2.2287-.8843 4.8464-2.7946l1.9103 2.6178q-2.7593 2.264-5.66 3.396t-6.4383 1.132q-7.358 0-11.5322-5.0233t-4.1743-13.9377q0-5.8723 1.8041-10.2942t5.1648-6.8627 7.8179-2.4409q7.075 0 10.754 4.7756t3.679 13.1242q0 1.5564-.1415 2.9715m-3.8913-4.245q0-6.226-2.5823-9.7282t-7.6764-3.5021q-4.5988 0-7.4288 3.5375t-3.113 10.754h20.8005Zm-8.1008 99.3442 13.018 19.81h-4.9526l-10.6832-17.1922L248.246 432h-4.7403l13.018-19.6685-11.32-17.3338h4.811l9.056 14.7868 9.1268-14.7867h4.6695Zm9.056 117.2535q-3.5376 2.3347-7.7826 2.3347t-6.6505-2.5116q-2.4054-2.5116-2.4054-7.2518V497.323h-6.226v-3.3252h6.226v-8.8438l4.1035-.4952v9.339h9.5512l-.4952 3.3252h-9.056v24.4795q0 3.2545 1.3442 4.8464t4.1035 1.5919q2.83 0 5.66-1.6273Zm125.0584-152.9443 47.6969 23.1631v7.4013l-47.697 23.4372-2.8782-6.5789 43.448-20.559-43.448-20.1478Z"/></svg>